<mxfile host="app.diagrams.net" modified="2024-01-25T04:36:14.056Z" agent="Mozilla/5.0 (Windows NT 10.0; Win64; x64) AppleWebKit/537.36 (KHTML, like Gecko) Chrome/120.0.0.0 Safari/537.36" etag="0ithOjr6BlmioNuWs8Sc" version="23.0.1" type="github">
  <diagram id="H5ckzEO8DUSfEvIOyFvg" name="Page-1">
    <mxGraphModel dx="794" dy="446" grid="1" gridSize="10" guides="1" tooltips="1" connect="1" arrows="1" fold="1" page="1" pageScale="1" pageWidth="1654" pageHeight="1169" math="0" shadow="0">
      <root>
        <mxCell id="0" />
        <mxCell id="1" parent="0" />
        <mxCell id="vjU_jRLMgszIU2lQWa2H-4" value="Brand Owner" style="edgeStyle=orthogonalEdgeStyle;rounded=0;orthogonalLoop=1;jettySize=auto;html=1;exitX=0.25;exitY=1;exitDx=0;exitDy=0;entryX=0.5;entryY=0;entryDx=0;entryDy=0;" parent="1" source="vjU_jRLMgszIU2lQWa2H-1" target="vjU_jRLMgszIU2lQWa2H-2" edge="1">
          <mxGeometry relative="1" as="geometry" />
        </mxCell>
        <mxCell id="vjU_jRLMgszIU2lQWa2H-5" value="Product Owner" style="edgeStyle=orthogonalEdgeStyle;rounded=0;orthogonalLoop=1;jettySize=auto;html=1;exitX=0.75;exitY=1;exitDx=0;exitDy=0;entryX=0.5;entryY=0;entryDx=0;entryDy=0;" parent="1" source="vjU_jRLMgszIU2lQWa2H-1" target="vjU_jRLMgszIU2lQWa2H-3" edge="1">
          <mxGeometry relative="1" as="geometry" />
        </mxCell>
        <mxCell id="vjU_jRLMgszIU2lQWa2H-11" value="T1" style="edgeStyle=orthogonalEdgeStyle;rounded=0;orthogonalLoop=1;jettySize=auto;html=1;entryX=0;entryY=0.5;entryDx=0;entryDy=0;exitX=0;exitY=0.5;exitDx=0;exitDy=0;" parent="1" source="vjU_jRLMgszIU2lQWa2H-1" target="vjU_jRLMgszIU2lQWa2H-8" edge="1">
          <mxGeometry relative="1" as="geometry">
            <Array as="points">
              <mxPoint x="90" y="230" />
              <mxPoint x="90" y="490" />
            </Array>
          </mxGeometry>
        </mxCell>
        <mxCell id="vjU_jRLMgszIU2lQWa2H-1" value="Company" style="rounded=1;whiteSpace=wrap;html=1;fillColor=#f5f5f5;fontColor=#333333;strokeColor=#666666;" parent="1" vertex="1">
          <mxGeometry x="160" y="200" width="120" height="60" as="geometry" />
        </mxCell>
        <mxCell id="vjU_jRLMgszIU2lQWa2H-15" style="edgeStyle=orthogonalEdgeStyle;rounded=0;orthogonalLoop=1;jettySize=auto;html=1;exitX=1;exitY=0.5;exitDx=0;exitDy=0;entryX=0;entryY=0.5;entryDx=0;entryDy=0;" parent="1" source="vjU_jRLMgszIU2lQWa2H-2" target="vjU_jRLMgszIU2lQWa2H-3" edge="1">
          <mxGeometry relative="1" as="geometry" />
        </mxCell>
        <mxCell id="vjU_jRLMgszIU2lQWa2H-2" value="Brand" style="rounded=1;whiteSpace=wrap;html=1;fillColor=#dae8fc;strokeColor=#6c8ebf;" parent="1" vertex="1">
          <mxGeometry x="130" y="320" width="120" height="60" as="geometry" />
        </mxCell>
        <mxCell id="vjU_jRLMgszIU2lQWa2H-23" value="List Price" style="edgeStyle=orthogonalEdgeStyle;rounded=0;orthogonalLoop=1;jettySize=auto;html=1;exitX=1;exitY=0.5;exitDx=0;exitDy=0;entryX=0;entryY=0.5;entryDx=0;entryDy=0;" parent="1" source="vjU_jRLMgszIU2lQWa2H-3" target="vjU_jRLMgszIU2lQWa2H-19" edge="1">
          <mxGeometry relative="1" as="geometry" />
        </mxCell>
        <mxCell id="vjU_jRLMgszIU2lQWa2H-3" value="Product" style="rounded=1;whiteSpace=wrap;html=1;fillColor=#d5e8d4;strokeColor=#82b366;" parent="1" vertex="1">
          <mxGeometry x="330" y="320" width="120" height="60" as="geometry" />
        </mxCell>
        <mxCell id="vjU_jRLMgszIU2lQWa2H-7" value="Parent Company" style="edgeStyle=orthogonalEdgeStyle;rounded=0;orthogonalLoop=1;jettySize=auto;html=1;entryX=0.5;entryY=0;entryDx=0;entryDy=0;" parent="1" source="vjU_jRLMgszIU2lQWa2H-6" target="vjU_jRLMgszIU2lQWa2H-1" edge="1">
          <mxGeometry relative="1" as="geometry" />
        </mxCell>
        <mxCell id="vjU_jRLMgszIU2lQWa2H-6" value="Company" style="rounded=1;whiteSpace=wrap;html=1;fillColor=#f5f5f5;fontColor=#333333;strokeColor=#666666;" parent="1" vertex="1">
          <mxGeometry x="160" y="80" width="120" height="60" as="geometry" />
        </mxCell>
        <mxCell id="vjU_jRLMgszIU2lQWa2H-10" value="Product Wholesaler" style="edgeStyle=orthogonalEdgeStyle;rounded=0;orthogonalLoop=1;jettySize=auto;html=1;entryX=0.25;entryY=1;entryDx=0;entryDy=0;" parent="1" source="vjU_jRLMgszIU2lQWa2H-8" target="vjU_jRLMgszIU2lQWa2H-3" edge="1">
          <mxGeometry relative="1" as="geometry" />
        </mxCell>
        <mxCell id="vjU_jRLMgszIU2lQWa2H-14" value="T2" style="edgeStyle=orthogonalEdgeStyle;rounded=0;orthogonalLoop=1;jettySize=auto;html=1;exitX=1;exitY=0.5;exitDx=0;exitDy=0;entryX=0;entryY=0.5;entryDx=0;entryDy=0;" parent="1" source="vjU_jRLMgszIU2lQWa2H-8" target="vjU_jRLMgszIU2lQWa2H-12" edge="1">
          <mxGeometry relative="1" as="geometry" />
        </mxCell>
        <mxCell id="vjU_jRLMgszIU2lQWa2H-17" value="Area Wholesaler" style="edgeStyle=orthogonalEdgeStyle;rounded=0;orthogonalLoop=1;jettySize=auto;html=1;exitX=0.5;exitY=1;exitDx=0;exitDy=0;entryX=0.75;entryY=1;entryDx=0;entryDy=0;" parent="1" source="vjU_jRLMgszIU2lQWa2H-8" target="vjU_jRLMgszIU2lQWa2H-16" edge="1">
          <mxGeometry relative="1" as="geometry">
            <Array as="points">
              <mxPoint x="360" y="570" />
              <mxPoint x="760" y="570" />
            </Array>
          </mxGeometry>
        </mxCell>
        <mxCell id="vjU_jRLMgszIU2lQWa2H-8" value="Company" style="rounded=1;whiteSpace=wrap;html=1;fillColor=#f5f5f5;fontColor=#333333;strokeColor=#666666;" parent="1" vertex="1">
          <mxGeometry x="300" y="460" width="120" height="60" as="geometry" />
        </mxCell>
        <mxCell id="vjU_jRLMgszIU2lQWa2H-13" value="Product Wholesaler" style="edgeStyle=orthogonalEdgeStyle;rounded=0;orthogonalLoop=1;jettySize=auto;html=1;exitX=0.25;exitY=0;exitDx=0;exitDy=0;entryX=0.75;entryY=1;entryDx=0;entryDy=0;" parent="1" source="vjU_jRLMgszIU2lQWa2H-12" target="vjU_jRLMgszIU2lQWa2H-3" edge="1">
          <mxGeometry relative="1" as="geometry" />
        </mxCell>
        <mxCell id="vjU_jRLMgszIU2lQWa2H-18" value="Area Wholesaler" style="edgeStyle=orthogonalEdgeStyle;rounded=0;orthogonalLoop=1;jettySize=auto;html=1;exitX=0.25;exitY=1;exitDx=0;exitDy=0;entryX=0.25;entryY=1;entryDx=0;entryDy=0;" parent="1" source="vjU_jRLMgszIU2lQWa2H-12" target="vjU_jRLMgszIU2lQWa2H-16" edge="1">
          <mxGeometry relative="1" as="geometry">
            <Array as="points">
              <mxPoint x="520" y="540" />
              <mxPoint x="700" y="540" />
            </Array>
          </mxGeometry>
        </mxCell>
        <mxCell id="vjU_jRLMgszIU2lQWa2H-12" value="Company" style="rounded=1;whiteSpace=wrap;html=1;fillColor=#f5f5f5;fontColor=#333333;strokeColor=#666666;" parent="1" vertex="1">
          <mxGeometry x="490" y="460" width="120" height="60" as="geometry" />
        </mxCell>
        <mxCell id="vjU_jRLMgszIU2lQWa2H-16" value="Area" style="rounded=1;whiteSpace=wrap;html=1;fillColor=#ffe6cc;strokeColor=#d79b00;" parent="1" vertex="1">
          <mxGeometry x="670" y="460" width="120" height="60" as="geometry" />
        </mxCell>
        <mxCell id="vjU_jRLMgszIU2lQWa2H-21" value="to company" style="edgeStyle=orthogonalEdgeStyle;rounded=0;orthogonalLoop=1;jettySize=auto;html=1;exitX=0.625;exitY=1;exitDx=0;exitDy=0;entryX=0.75;entryY=0;entryDx=0;entryDy=0;" parent="1" source="vjU_jRLMgszIU2lQWa2H-19" target="vjU_jRLMgszIU2lQWa2H-12" edge="1">
          <mxGeometry relative="1" as="geometry" />
        </mxCell>
        <mxCell id="vjU_jRLMgszIU2lQWa2H-22" value="to area" style="edgeStyle=orthogonalEdgeStyle;rounded=0;orthogonalLoop=1;jettySize=auto;html=1;exitX=1;exitY=0.5;exitDx=0;exitDy=0;entryX=0.5;entryY=0;entryDx=0;entryDy=0;" parent="1" source="vjU_jRLMgszIU2lQWa2H-19" target="vjU_jRLMgszIU2lQWa2H-16" edge="1">
          <mxGeometry relative="1" as="geometry" />
        </mxCell>
        <mxCell id="vjU_jRLMgszIU2lQWa2H-19" value="Price" style="shape=hexagon;perimeter=hexagonPerimeter2;whiteSpace=wrap;html=1;fixedSize=1;fillColor=#f8cecc;strokeColor=#b85450;" parent="1" vertex="1">
          <mxGeometry x="530" y="310" width="120" height="80" as="geometry" />
        </mxCell>
        <mxCell id="9CrzQcPDSSwWUf-sEPpU-1" value="Medicine Pricing" style="swimlane;childLayout=stackLayout;resizeParent=1;resizeParentMax=0;horizontal=1;startSize=20;horizontalStack=0;html=1;" vertex="1" parent="1">
          <mxGeometry x="130" y="590" width="1030" height="500" as="geometry" />
        </mxCell>
        <mxCell id="9CrzQcPDSSwWUf-sEPpU-2" value="MAH" style="swimlane;startSize=20;horizontal=0;html=1;" vertex="1" parent="9CrzQcPDSSwWUf-sEPpU-1">
          <mxGeometry y="20" width="1030" height="240" as="geometry" />
        </mxCell>
        <mxCell id="9CrzQcPDSSwWUf-sEPpU-5" value="Marketing Authorization Holder" style="rounded=1;whiteSpace=wrap;html=1;fillColor=#f5f5f5;fontColor=#333333;strokeColor=#666666;" vertex="1" parent="9CrzQcPDSSwWUf-sEPpU-2">
          <mxGeometry x="50" y="30" width="120" height="60" as="geometry" />
        </mxCell>
        <mxCell id="9CrzQcPDSSwWUf-sEPpU-6" value="Product" style="rounded=1;whiteSpace=wrap;html=1;fillColor=#d5e8d4;strokeColor=#82b366;" vertex="1" parent="9CrzQcPDSSwWUf-sEPpU-2">
          <mxGeometry x="220" y="30" width="120" height="60" as="geometry" />
        </mxCell>
        <mxCell id="9CrzQcPDSSwWUf-sEPpU-7" value="Brand" style="rounded=1;whiteSpace=wrap;html=1;fillColor=#dae8fc;strokeColor=#6c8ebf;" vertex="1" parent="9CrzQcPDSSwWUf-sEPpU-2">
          <mxGeometry x="220" y="160" width="120" height="60" as="geometry" />
        </mxCell>
        <mxCell id="9CrzQcPDSSwWUf-sEPpU-8" value="List Price" style="shape=hexagon;perimeter=hexagonPerimeter2;whiteSpace=wrap;html=1;fixedSize=1;fillColor=#f8cecc;strokeColor=#b85450;" vertex="1" parent="9CrzQcPDSSwWUf-sEPpU-2">
          <mxGeometry x="870" y="40" width="120" height="80" as="geometry" />
        </mxCell>
        <mxCell id="9CrzQcPDSSwWUf-sEPpU-21" value="Sales Price&lt;br style=&quot;border-color: var(--border-color);&quot;&gt;to T1&lt;br&gt;(Discounted)" style="shape=hexagon;perimeter=hexagonPerimeter2;whiteSpace=wrap;html=1;fixedSize=1;fillColor=#f8cecc;strokeColor=#b85450;" vertex="1" parent="9CrzQcPDSSwWUf-sEPpU-2">
          <mxGeometry x="870" y="140" width="120" height="80" as="geometry" />
        </mxCell>
        <mxCell id="9CrzQcPDSSwWUf-sEPpU-27" value="R &amp;amp; D&lt;br&gt;Cost" style="shape=hexagon;perimeter=hexagonPerimeter2;whiteSpace=wrap;html=1;fixedSize=1;fillColor=#f8cecc;strokeColor=#b85450;" vertex="1" parent="9CrzQcPDSSwWUf-sEPpU-2">
          <mxGeometry x="500" y="29" width="120" height="80" as="geometry" />
        </mxCell>
        <mxCell id="9CrzQcPDSSwWUf-sEPpU-28" value="Manufacture&lt;br&gt;Cost" style="shape=hexagon;perimeter=hexagonPerimeter2;whiteSpace=wrap;html=1;fixedSize=1;fillColor=#f8cecc;strokeColor=#b85450;" vertex="1" parent="9CrzQcPDSSwWUf-sEPpU-2">
          <mxGeometry x="400" y="89" width="120" height="80" as="geometry" />
        </mxCell>
        <mxCell id="9CrzQcPDSSwWUf-sEPpU-30" value="Distribution Cost" style="shape=hexagon;perimeter=hexagonPerimeter2;whiteSpace=wrap;html=1;fixedSize=1;fillColor=#f8cecc;strokeColor=#b85450;" vertex="1" parent="9CrzQcPDSSwWUf-sEPpU-2">
          <mxGeometry x="600" y="89" width="120" height="80" as="geometry" />
        </mxCell>
        <mxCell id="9CrzQcPDSSwWUf-sEPpU-31" value="Profit" style="shape=hexagon;perimeter=hexagonPerimeter2;whiteSpace=wrap;html=1;fixedSize=1;fillColor=#f8cecc;strokeColor=#b85450;" vertex="1" parent="9CrzQcPDSSwWUf-sEPpU-2">
          <mxGeometry x="750" y="89" width="120" height="80" as="geometry" />
        </mxCell>
        <mxCell id="9CrzQcPDSSwWUf-sEPpU-32" value="Marketing&lt;br&gt;Cost" style="shape=hexagon;perimeter=hexagonPerimeter2;whiteSpace=wrap;html=1;fixedSize=1;fillColor=#f8cecc;strokeColor=#b85450;" vertex="1" parent="9CrzQcPDSSwWUf-sEPpU-2">
          <mxGeometry x="500" y="150" width="120" height="80" as="geometry" />
        </mxCell>
        <mxCell id="9CrzQcPDSSwWUf-sEPpU-3" value="Tier 1" style="swimlane;startSize=20;horizontal=0;html=1;" vertex="1" parent="9CrzQcPDSSwWUf-sEPpU-1">
          <mxGeometry y="260" width="1030" as="geometry" />
        </mxCell>
        <mxCell id="9CrzQcPDSSwWUf-sEPpU-9" value="Tier 1 Wholesaler" style="rounded=1;whiteSpace=wrap;html=1;fillColor=#f5f5f5;fontColor=#333333;strokeColor=#666666;" vertex="1" parent="9CrzQcPDSSwWUf-sEPpU-3">
          <mxGeometry x="50" y="30" width="120" height="60" as="geometry" />
        </mxCell>
        <mxCell id="9CrzQcPDSSwWUf-sEPpU-10" value="T1 Area" style="rounded=1;whiteSpace=wrap;html=1;fillColor=#ffe6cc;strokeColor=#d79b00;" vertex="1" parent="9CrzQcPDSSwWUf-sEPpU-3">
          <mxGeometry x="200" y="30" width="120" height="60" as="geometry" />
        </mxCell>
        <mxCell id="9CrzQcPDSSwWUf-sEPpU-20" value="Sales Price&lt;br style=&quot;border-color: var(--border-color);&quot;&gt;to T2" style="shape=hexagon;perimeter=hexagonPerimeter2;whiteSpace=wrap;html=1;fixedSize=1;fillColor=#f8cecc;strokeColor=#b85450;" vertex="1" parent="9CrzQcPDSSwWUf-sEPpU-3">
          <mxGeometry x="890" y="20" width="120" height="80" as="geometry" />
        </mxCell>
        <mxCell id="9CrzQcPDSSwWUf-sEPpU-23" value="Profit" style="shape=hexagon;perimeter=hexagonPerimeter2;whiteSpace=wrap;html=1;fixedSize=1;fillColor=#f8cecc;strokeColor=#b85450;" vertex="1" parent="9CrzQcPDSSwWUf-sEPpU-3">
          <mxGeometry x="750" y="20" width="120" height="80" as="geometry" />
        </mxCell>
        <mxCell id="9CrzQcPDSSwWUf-sEPpU-4" value="Tier 2" style="swimlane;startSize=20;horizontal=0;html=1;" vertex="1" parent="9CrzQcPDSSwWUf-sEPpU-1">
          <mxGeometry y="260" width="1030" height="120" as="geometry" />
        </mxCell>
        <mxCell id="9CrzQcPDSSwWUf-sEPpU-12" value="Tier 2 Wholesaler" style="rounded=1;whiteSpace=wrap;html=1;fillColor=#f5f5f5;fontColor=#333333;strokeColor=#666666;" vertex="1" parent="9CrzQcPDSSwWUf-sEPpU-4">
          <mxGeometry x="50" y="30" width="120" height="60" as="geometry" />
        </mxCell>
        <mxCell id="9CrzQcPDSSwWUf-sEPpU-13" value="T2 Area" style="rounded=1;whiteSpace=wrap;html=1;fillColor=#ffe6cc;strokeColor=#d79b00;" vertex="1" parent="9CrzQcPDSSwWUf-sEPpU-4">
          <mxGeometry x="200" y="30" width="120" height="60" as="geometry" />
        </mxCell>
        <mxCell id="9CrzQcPDSSwWUf-sEPpU-25" value="Profit" style="shape=hexagon;perimeter=hexagonPerimeter2;whiteSpace=wrap;html=1;fixedSize=1;fillColor=#f8cecc;strokeColor=#b85450;" vertex="1" parent="9CrzQcPDSSwWUf-sEPpU-4">
          <mxGeometry x="750" y="20" width="120" height="80" as="geometry" />
        </mxCell>
        <mxCell id="9CrzQcPDSSwWUf-sEPpU-26" value="Sales Price&lt;br style=&quot;border-color: var(--border-color);&quot;&gt;to Retail" style="shape=hexagon;perimeter=hexagonPerimeter2;whiteSpace=wrap;html=1;fixedSize=1;fillColor=#f8cecc;strokeColor=#b85450;" vertex="1" parent="9CrzQcPDSSwWUf-sEPpU-4">
          <mxGeometry x="890" y="20" width="120" height="80" as="geometry" />
        </mxCell>
        <mxCell id="9CrzQcPDSSwWUf-sEPpU-22" value="Distribution Cost" style="shape=hexagon;perimeter=hexagonPerimeter2;whiteSpace=wrap;html=1;fixedSize=1;fillColor=#f8cecc;strokeColor=#b85450;" vertex="1" parent="9CrzQcPDSSwWUf-sEPpU-4">
          <mxGeometry x="600" y="20" width="120" height="80" as="geometry" />
        </mxCell>
        <mxCell id="9CrzQcPDSSwWUf-sEPpU-15" value="Retail" style="swimlane;startSize=20;horizontal=0;html=1;" vertex="1" parent="9CrzQcPDSSwWUf-sEPpU-1">
          <mxGeometry y="380" width="1030" height="120" as="geometry" />
        </mxCell>
        <mxCell id="9CrzQcPDSSwWUf-sEPpU-16" value="Retail&lt;br&gt;Drug Store" style="rounded=1;whiteSpace=wrap;html=1;fillColor=#f5f5f5;fontColor=#333333;strokeColor=#666666;" vertex="1" parent="9CrzQcPDSSwWUf-sEPpU-15">
          <mxGeometry x="50" y="30" width="120" height="60" as="geometry" />
        </mxCell>
        <mxCell id="9CrzQcPDSSwWUf-sEPpU-17" value="Hospital /&amp;nbsp;Clinic" style="rounded=1;whiteSpace=wrap;html=1;fillColor=#f5f5f5;fontColor=#333333;strokeColor=#666666;" vertex="1" parent="9CrzQcPDSSwWUf-sEPpU-15">
          <mxGeometry x="200" y="30" width="120" height="60" as="geometry" />
        </mxCell>
        <mxCell id="9CrzQcPDSSwWUf-sEPpU-18" value="Rx&lt;br&gt;prescription" style="strokeWidth=1;html=1;shape=mxgraph.flowchart.document2;whiteSpace=wrap;size=0.25;fillColor=#d5e8d4;strokeColor=#82b366;" vertex="1" parent="9CrzQcPDSSwWUf-sEPpU-15">
          <mxGeometry x="360" y="30" width="100" height="60" as="geometry" />
        </mxCell>
        <mxCell id="9CrzQcPDSSwWUf-sEPpU-19" value="Retail&lt;br&gt;Price" style="shape=hexagon;perimeter=hexagonPerimeter2;whiteSpace=wrap;html=1;fixedSize=1;fillColor=#f8cecc;strokeColor=#b85450;" vertex="1" parent="9CrzQcPDSSwWUf-sEPpU-15">
          <mxGeometry x="880" y="20" width="120" height="80" as="geometry" />
        </mxCell>
        <mxCell id="9CrzQcPDSSwWUf-sEPpU-33" value="Retail Cost" style="shape=hexagon;perimeter=hexagonPerimeter2;whiteSpace=wrap;html=1;fixedSize=1;fillColor=#f8cecc;strokeColor=#b85450;" vertex="1" parent="9CrzQcPDSSwWUf-sEPpU-15">
          <mxGeometry x="600" y="20" width="120" height="80" as="geometry" />
        </mxCell>
        <mxCell id="9CrzQcPDSSwWUf-sEPpU-34" value="Profit" style="shape=hexagon;perimeter=hexagonPerimeter2;whiteSpace=wrap;html=1;fixedSize=1;fillColor=#f8cecc;strokeColor=#b85450;" vertex="1" parent="9CrzQcPDSSwWUf-sEPpU-15">
          <mxGeometry x="750" y="20" width="120" height="80" as="geometry" />
        </mxCell>
      </root>
    </mxGraphModel>
  </diagram>
</mxfile>
